<svg width="31" height="31" viewBox="0 0 31 31" fill="none" xmlns="http://www.w3.org/2000/svg">
<path d="M21.627 15.2665C21.627 17.4292 19.9731 19.0831 17.8104 19.0831C15.6476 19.0831 13.9938 17.4292 13.9938 15.2665C13.9938 13.1037 15.6476 11.4499 17.8104 11.4499C19.9731 11.4499 21.627 13.1037 21.627 15.2665ZM27.988 8.90546V22.8997C27.988 24.2991 26.843 25.4441 25.4436 25.4441H5.08835C3.68893 25.4441 2.54395 24.2991 2.54395 22.8997V8.90546C2.54395 7.50604 3.68893 6.36105 5.08835 6.36105V5.08885H10.1772V6.36105H12.7216L13.9938 3.81665H21.627L22.8992 6.36105H25.4436C26.843 6.36105 27.988 7.50604 27.988 8.90546ZM9.54106 11.4499C9.54106 10.4321 8.65051 9.54156 7.63275 9.54156C6.61499 9.54156 5.72445 10.4321 5.72445 11.4499C5.72445 12.4676 6.61499 13.3582 7.63275 13.3582C8.65051 13.3582 9.54106 12.4676 9.54106 11.4499ZM24.1714 15.2665C24.1714 11.7043 21.3725 8.90546 17.8104 8.90546C14.2482 8.90546 11.4494 11.7043 11.4494 15.2665C11.4494 18.8286 14.2482 21.6275 17.8104 21.6275C21.3725 21.6275 24.1714 18.8286 24.1714 15.2665Z" fill="white"/>
</svg>
