<svg width="32" height="32" viewBox="0 0 32 32" fill="none" xmlns="http://www.w3.org/2000/svg">
<path d="M23.969 10.653C23.969 11.3593 23.6884 12.0367 23.189 12.5362C22.6895 13.0356 22.0121 13.3162 21.3058 13.3162C20.5995 13.3162 19.9221 13.0356 19.4226 12.5362C18.9232 12.0367 18.6426 11.3593 18.6426 10.653C18.6426 9.94664 18.9232 9.26924 19.4226 8.76979C19.9221 8.27033 20.5995 7.98975 21.3058 7.98975C22.0121 7.98975 22.6895 8.27033 23.189 8.76979C23.6884 9.26924 23.969 9.94664 23.969 10.653Z" fill="white"/>
<path fill-rule="evenodd" clip-rule="evenodd" d="M15.903 1.66442H16.0548C19.1295 1.66442 21.5384 1.66442 23.4186 1.91742C25.3415 2.17576 26.8595 2.71639 28.0513 3.90685C29.2431 5.09864 29.7824 6.61668 30.0407 8.54086C30.2937 10.4198 30.2937 12.8286 30.2937 15.9033V16.0205C30.2937 18.5626 30.2937 20.6425 30.1552 22.3364C30.0167 24.0408 29.7331 25.4616 29.0966 26.6441C28.8178 27.1643 28.4694 27.6335 28.0513 28.0516C26.8595 29.2434 25.3415 29.7827 23.4173 30.0411C21.5384 30.2941 19.1295 30.2941 16.0548 30.2941H15.903C12.8283 30.2941 10.4194 30.2941 8.53917 30.0411C6.61633 29.7827 5.09829 29.2421 3.9065 28.0516C2.85053 26.9957 2.30457 25.6814 2.01561 24.0488C1.72931 22.4469 1.67738 20.4535 1.66673 17.9793C1.66495 17.349 1.66406 16.6823 1.66406 15.9792V15.902C1.66406 12.8273 1.66406 10.4184 1.91707 8.5382C2.1754 6.61535 2.71604 5.09731 3.9065 3.90552C5.09829 2.71373 6.61633 2.17442 8.54051 1.91609C10.4194 1.66309 12.8283 1.66309 15.903 1.66309M8.8055 3.89487C7.1037 4.1239 6.07702 4.56067 5.31934 5.31836C4.56032 6.07738 4.12488 7.10272 3.89584 8.80585C3.66414 10.5369 3.66148 12.8113 3.66148 15.9779V17.1018L4.99442 15.9353C5.5791 15.4235 6.33645 15.1531 7.11306 15.1788C7.88967 15.2045 8.62748 15.5244 9.17702 16.0738L14.8896 21.7864C15.3329 22.2296 15.9184 22.5022 16.5429 22.5563C17.1674 22.6104 17.791 22.4424 18.3039 22.082L18.7007 21.8024C19.4407 21.2824 20.3351 21.0289 21.2379 21.0834C22.1406 21.1378 22.9981 21.4969 23.6703 22.102L27.4387 25.4936C27.8196 24.6973 28.0446 23.6507 28.1645 22.1739C28.295 20.5693 28.2963 18.5692 28.2963 15.9779C28.2963 12.8113 28.2936 10.5369 28.0619 8.80585C27.8329 7.10272 27.3961 6.07605 26.6384 5.31703C25.8794 4.55934 24.8541 4.1239 23.1509 3.89487C21.4199 3.66317 19.1455 3.6605 15.9789 3.6605C12.8123 3.6605 10.5366 3.66317 8.8055 3.89487Z" fill="white"/>
</svg>
