<svg width="30" height="30" viewBox="0 0 30 30" fill="none" xmlns="http://www.w3.org/2000/svg">
<path d="M23.2745 20.052C23.2785 21.5748 22.9543 23.0807 22.3241 24.467C21.6938 25.8533 20.7722 27.0876 19.622 28.0857C18.8682 28.7482 19.3845 29.9882 20.3882 29.8882C21.0594 29.8229 21.7233 29.6974 22.372 29.5132C24.1138 29.022 25.6972 28.0848 26.9659 26.7943C28.2345 25.5037 29.1445 23.9044 29.6057 22.1545C30.0445 20.5655 30.11 18.8967 29.7971 17.2783C29.4842 15.6599 28.8013 14.1357 27.802 12.8248C26.8026 11.5139 25.5137 10.4518 24.036 9.72146C22.5582 8.99109 20.9316 8.61222 19.2832 8.61446C18.8467 8.61409 18.4106 8.63914 17.977 8.68946C16.9845 8.81446 16.7332 10.1407 17.6145 10.617C20.9907 12.432 23.277 15.9732 23.277 20.052H23.2745ZM9.88074 23.1932C8.35467 23.1978 6.84535 22.8752 5.45454 22.2471C4.06373 21.619 2.82376 20.6999 1.81824 19.552C1.15324 18.802 -0.0905108 19.3145 0.0107392 20.3145C0.0764038 20.9835 0.201906 21.6453 0.385739 22.292C1.37824 25.8207 4.21574 28.5745 7.76949 29.4995C14.9282 31.3645 21.357 26.0332 21.357 19.2132C21.357 18.7757 21.332 18.3382 21.282 17.9132C21.157 16.9232 19.8257 16.6732 19.3482 17.5507C18.4263 19.2581 17.0595 20.6842 15.3926 21.6776C13.7258 22.671 11.8212 23.1947 9.88074 23.1932ZM6.72574 9.84196C6.72203 8.31889 7.04659 6.81291 7.67732 5.42657C8.30804 4.04024 9.23011 2.8061 10.3807 1.80821C11.1345 1.14446 10.6182 -0.0942938 9.61449 0.00570616C8.93993 0.0721812 8.27189 0.193414 7.61699 0.368206C5.87682 0.862021 4.29508 1.80013 3.02723 3.09033C1.75939 4.38053 0.849067 5.97842 0.385739 7.72696C-0.0529963 9.31588 -0.118471 10.9847 0.19443 12.6031C0.507331 14.2215 1.19014 15.7457 2.18951 17.0566C3.18889 18.3675 4.47779 19.4296 5.95553 20.16C7.43327 20.8903 9.05986 21.2692 10.7082 21.267C11.1482 21.267 11.5882 21.242 12.0145 21.192C13.007 21.067 13.2582 19.7395 12.377 19.2645C10.6698 18.3535 9.24223 16.9956 8.24704 15.3359C7.25185 13.6762 6.72519 11.7772 6.72574 9.84196ZM20.1257 6.70071C21.6518 6.69608 23.1611 7.0187 24.5519 7.64683C25.9428 8.27496 27.1827 9.19399 28.1882 10.342C28.8507 11.092 30.0957 10.5795 29.9945 9.57946C29.9289 8.90999 29.8034 8.24775 29.6195 7.60071C28.6257 4.07196 25.7882 1.31946 22.2332 0.393206C15.087 -1.48429 8.65824 3.84696 8.65824 10.667C8.65824 11.1045 8.68324 11.542 8.73324 11.9682C8.85824 12.957 10.1932 13.207 10.6695 12.3307C11.59 10.6261 12.955 9.20274 14.6196 8.21168C16.2841 7.22061 18.186 6.6989 20.1232 6.70196L20.1257 6.70071Z" fill="#CFAF21"/>
</svg>
