<svg width="28" height="28" viewBox="0 0 28 28" fill="none" xmlns="http://www.w3.org/2000/svg">
<path d="M4.66637 14C4.66259 15.4492 5.0012 16.8789 5.6546 18.1725C6.42934 19.7226 7.62036 21.0265 9.09426 21.938C10.5682 22.8495 12.2667 23.3326 13.9997 23.3333C15.1926 23.3364 16.3722 23.1075 17.4735 22.6621C17.9357 22.4752 18.4374 22.39 18.9289 22.4732L21.3156 22.7274C22.1287 22.814 22.8144 22.1282 22.7276 21.3151L22.4729 18.9292C22.3897 18.4377 22.4749 17.936 22.6618 17.4738C23.1072 16.3724 23.3361 15.1928 23.333 14C23.3323 12.267 22.8492 10.5684 21.9377 9.09454C21.0262 7.62065 19.7224 6.42963 18.1722 5.65489C16.8786 5.00148 15.4489 4.66288 13.9997 4.66666H13.4507C11.162 4.79292 9.00027 5.75894 7.37946 7.37975C5.75865 9.00056 4.79264 11.1623 4.66637 13.4509V14Z" stroke="#6E95BE" stroke-width="2" stroke-linecap="round" stroke-linejoin="round"/>
</svg>
