<svg width="32" height="32" viewBox="0 0 32 32" fill="none" xmlns="http://www.w3.org/2000/svg">
<path d="M16.0003 29.3334C14.1781 29.3334 12.4559 28.9832 10.8337 28.2827C9.21144 27.5823 7.79499 26.6267 6.58433 25.4161C5.37366 24.2054 4.4181 22.789 3.71766 21.1667C3.01721 19.5445 2.66699 17.8223 2.66699 16.0001C2.66699 14.1556 3.02833 12.4223 3.75099 10.8001C4.47366 9.17786 5.45144 7.76675 6.68433 6.56675C7.91721 5.36675 9.35588 4.41697 11.0003 3.71741C12.6448 3.01786 14.4003 2.66764 16.267 2.66675C18.0448 2.66675 19.7225 2.97253 21.3003 3.58408C22.8781 4.19564 24.2617 5.04008 25.451 6.11741C26.6403 7.19475 27.5848 8.47253 28.2843 9.95075C28.9839 11.429 29.3337 13.0232 29.3337 14.7334C29.3337 17.289 28.5559 19.2503 27.0003 20.6174C25.4448 21.9845 23.5559 22.6676 21.3337 22.6667H18.867C18.667 22.6667 18.5283 22.7223 18.451 22.8334C18.3737 22.9445 18.3345 23.0667 18.3337 23.2001C18.3337 23.4667 18.5003 23.8503 18.8337 24.3507C19.167 24.8512 19.3337 25.4232 19.3337 26.0667C19.3337 27.1779 19.0283 28.0001 18.4177 28.5334C17.807 29.0667 17.0012 29.3334 16.0003 29.3334ZM8.66699 17.3334C9.24477 17.3334 9.72255 17.1445 10.1003 16.7667C10.4781 16.389 10.667 15.9112 10.667 15.3334C10.667 14.7556 10.4781 14.2779 10.1003 13.9001C9.72255 13.5223 9.24477 13.3334 8.66699 13.3334C8.08921 13.3334 7.61144 13.5223 7.23366 13.9001C6.85588 14.2779 6.66699 14.7556 6.66699 15.3334C6.66699 15.9112 6.85588 16.389 7.23366 16.7667C7.61144 17.1445 8.08921 17.3334 8.66699 17.3334ZM12.667 12.0001C13.2448 12.0001 13.7225 11.8112 14.1003 11.4334C14.4781 11.0556 14.667 10.5779 14.667 10.0001C14.667 9.4223 14.4781 8.94453 14.1003 8.56675C13.7225 8.18897 13.2448 8.00008 12.667 8.00008C12.0892 8.00008 11.6114 8.18897 11.2337 8.56675C10.8559 8.94453 10.667 9.4223 10.667 10.0001C10.667 10.5779 10.8559 11.0556 11.2337 11.4334C11.6114 11.8112 12.0892 12.0001 12.667 12.0001ZM19.3337 12.0001C19.9114 12.0001 20.3892 11.8112 20.767 11.4334C21.1448 11.0556 21.3337 10.5779 21.3337 10.0001C21.3337 9.4223 21.1448 8.94453 20.767 8.56675C20.3892 8.18897 19.9114 8.00008 19.3337 8.00008C18.7559 8.00008 18.2781 8.18897 17.9003 8.56675C17.5225 8.94453 17.3337 9.4223 17.3337 10.0001C17.3337 10.5779 17.5225 11.0556 17.9003 11.4334C18.2781 11.8112 18.7559 12.0001 19.3337 12.0001ZM23.3337 17.3334C23.9114 17.3334 24.3892 17.1445 24.767 16.7667C25.1448 16.389 25.3337 15.9112 25.3337 15.3334C25.3337 14.7556 25.1448 14.2779 24.767 13.9001C24.3892 13.5223 23.9114 13.3334 23.3337 13.3334C22.7559 13.3334 22.2781 13.5223 21.9003 13.9001C21.5225 14.2779 21.3337 14.7556 21.3337 15.3334C21.3337 15.9112 21.5225 16.389 21.9003 16.7667C22.2781 17.1445 22.7559 17.3334 23.3337 17.3334Z" fill="white"/>
</svg>
