<svg width="32" height="32" viewBox="0 0 32 32" fill="none" xmlns="http://www.w3.org/2000/svg">
<path d="M15.9148 29.1774C14.1022 29.1774 12.3892 28.8291 10.7756 28.1323C9.16198 27.4356 7.75307 26.4851 6.54884 25.2809C5.34461 24.0767 4.39414 22.6678 3.69742 21.0542C3.0007 19.4406 2.65234 17.7275 2.65234 15.915C2.65234 14.0804 3.01176 12.3563 3.73058 10.7427C4.4494 9.12907 5.42198 7.72546 6.64831 6.53184C7.87464 5.33823 9.30565 4.3935 10.9414 3.69767C12.577 3.00183 14.3233 2.65347 16.18 2.65259C17.9483 2.65259 19.6172 2.95674 21.1866 3.56504C22.7559 4.17334 24.1321 5.0133 25.3152 6.0849C26.4982 7.1565 27.4376 8.42748 28.1334 9.89784C28.8292 11.3682 29.1772 12.9539 29.1772 14.6551C29.1772 17.197 28.4035 19.1479 26.8562 20.5078C25.309 21.8676 23.4301 22.5471 21.2197 22.5462H18.7662C18.5672 22.5462 18.4293 22.6015 18.3524 22.712C18.2755 22.8225 18.2366 22.9441 18.2357 23.0767C18.2357 23.3419 18.4015 23.7235 18.733 24.2212C19.0646 24.719 19.2304 25.288 19.2304 25.9281C19.2304 27.0333 18.9266 27.8512 18.3192 28.3817C17.7118 28.9122 16.9103 29.1774 15.9148 29.1774ZM8.62043 17.2412C9.19513 17.2412 9.67037 17.0534 10.0461 16.6776C10.4219 16.3018 10.6098 15.8266 10.6098 15.2519C10.6098 14.6772 10.4219 14.2019 10.0461 13.8262C9.67037 13.4504 9.19513 13.2625 8.62043 13.2625C8.04572 13.2625 7.57049 13.4504 7.19472 13.8262C6.81895 14.2019 6.63107 14.6772 6.63107 15.2519C6.63107 15.8266 6.81895 16.3018 7.19472 16.6776C7.57049 17.0534 8.04572 17.2412 8.62043 17.2412ZM12.5992 11.9363C13.1739 11.9363 13.6491 11.7484 14.0249 11.3726C14.4006 10.9969 14.5885 10.5216 14.5885 9.94691C14.5885 9.37221 14.4006 8.89697 14.0249 8.52121C13.6491 8.14544 13.1739 7.95755 12.5992 7.95755C12.0244 7.95755 11.5492 8.14544 11.1734 8.52121C10.7977 8.89697 10.6098 9.37221 10.6098 9.94691C10.6098 10.5216 10.7977 10.9969 11.1734 11.3726C11.5492 11.7484 12.0244 11.9363 12.5992 11.9363ZM19.2304 11.9363C19.8051 11.9363 20.2803 11.7484 20.6561 11.3726C21.0318 10.9969 21.2197 10.5216 21.2197 9.94691C21.2197 9.37221 21.0318 8.89697 20.6561 8.52121C20.2803 8.14544 19.8051 7.95755 19.2304 7.95755C18.6557 7.95755 18.1804 8.14544 17.8046 8.52121C17.4289 8.89697 17.241 9.37221 17.241 9.94691C17.241 10.5216 17.4289 10.9969 17.8046 11.3726C18.1804 11.7484 18.6557 11.9363 19.2304 11.9363ZM23.2091 17.2412C23.7838 17.2412 24.259 17.0534 24.6348 16.6776C25.0106 16.3018 25.1984 15.8266 25.1984 15.2519C25.1984 14.6772 25.0106 14.2019 24.6348 13.8262C24.259 13.4504 23.7838 13.2625 23.2091 13.2625C22.6344 13.2625 22.1591 13.4504 21.7834 13.8262C21.4076 14.2019 21.2197 14.6772 21.2197 15.2519C21.2197 15.8266 21.4076 16.3018 21.7834 16.6776C22.1591 17.0534 22.6344 17.2412 23.2091 17.2412ZM15.9148 26.5249C16.1137 26.5249 16.2742 26.4697 16.3962 26.3591C16.5182 26.2486 16.5788 26.105 16.5779 25.9281C16.5779 25.6187 16.4121 25.2539 16.0805 24.834C15.749 24.414 15.5832 23.784 15.5832 22.9441C15.5832 22.0157 15.9037 21.2752 16.5447 20.7226C17.1857 20.17 17.9704 19.8937 18.8988 19.8937H21.2197C22.6786 19.8937 23.9275 19.4684 24.9664 18.6179C26.0052 17.7673 26.5247 16.4464 26.5247 14.6551C26.5247 11.9805 25.5026 9.75328 23.4584 7.97347C21.4142 6.19365 18.9881 5.30419 16.18 5.30507C13.1739 5.30507 10.6098 6.33291 8.4878 8.38858C6.36582 10.4443 5.30483 12.9531 5.30483 15.915C5.30483 18.8548 6.33841 21.3583 8.40558 23.4255C10.4727 25.4927 12.9758 26.5258 15.9148 26.5249Z" fill="white"/>
</svg>
