<svg width="32" height="32" viewBox="0 0 32 32" fill="none" xmlns="http://www.w3.org/2000/svg">
<path d="M15.9146 15.9149C14.4557 15.9149 13.2069 15.3954 12.168 14.3565C11.1291 13.3176 10.6096 12.0688 10.6096 10.6099C10.6096 9.15103 11.1291 7.90215 12.168 6.86326C13.2069 5.82438 14.4557 5.30493 15.9146 5.30493C17.3735 5.30493 18.6224 5.82438 19.6612 6.86326C20.7001 7.90215 21.2196 9.15103 21.2196 10.6099C21.2196 12.0688 20.7001 13.3176 19.6612 14.3565C18.6224 15.3954 17.3735 15.9149 15.9146 15.9149ZM5.30469 26.5248V22.8113C5.30469 22.0598 5.49832 21.3692 5.88558 20.7397C6.27284 20.1102 6.78654 19.6292 7.42667 19.2968C8.79712 18.6115 10.1897 18.0978 11.6043 17.7557C13.019 17.4135 14.4557 17.242 15.9146 17.2411C17.3735 17.2402 18.8102 17.4117 20.2249 17.7557C21.6396 18.0996 23.0321 18.6133 24.4026 19.2968C25.0436 19.6283 25.5577 20.1093 25.945 20.7397C26.3322 21.3701 26.5254 22.0607 26.5245 22.8113V26.5248H5.30469ZM7.95717 23.8723H23.8721V22.8113C23.8721 22.5682 23.8115 22.3471 23.6904 22.1482C23.5692 21.9493 23.4088 21.7945 23.2089 21.684C22.0153 21.0872 20.8106 20.6398 19.5949 20.3418C18.3792 20.0439 17.1524 19.8945 15.9146 19.8936C14.6768 19.8927 13.45 20.0421 12.2343 20.3418C11.0186 20.6416 9.81391 21.089 8.62029 21.684C8.42135 21.7945 8.26088 21.9493 8.13886 22.1482C8.01685 22.3471 7.95628 22.5682 7.95717 22.8113V23.8723ZM15.9146 13.2624C16.644 13.2624 17.2687 13.0029 17.7886 12.4839C18.3085 11.9649 18.568 11.3402 18.5671 10.6099C18.5662 9.87958 18.3067 9.25536 17.7886 8.73724C17.2705 8.21912 16.6458 7.95918 15.9146 7.95741C15.1834 7.95564 14.5592 8.21559 14.042 8.73724C13.5247 9.2589 13.2648 9.88311 13.2621 10.6099C13.2595 11.3367 13.5194 11.9613 14.042 12.4839C14.5645 13.0064 15.1887 13.2659 15.9146 13.2624Z" fill="white"/>
</svg>
