<svg width="80" height="80" viewBox="0 0 80 80" fill="none" xmlns="http://www.w3.org/2000/svg">
<path d="M48.3559 12.0748C29.2684 2.00608 11.8934 9.18109 5.63088 18.9873C3.58088 22.1936 2.13088 28.0248 2.18713 32.6498C2.29963 42.1686 7.56838 52.7748 18.9371 63.4748C32.9246 76.6373 47.1996 75.4873 51.7371 74.3811C57.4496 72.9873 61.2809 71.7998 60.6934 66.4748C60.6184 65.7748 60.0184 64.5061 59.1121 63.9498C56.2059 62.1873 50.1371 61.2686 47.2809 57.0248C43.1309 50.8436 48.2934 50.5311 53.2371 53.1748C58.5309 56.0061 61.5559 57.7748 66.8684 57.2873C70.7621 56.9311 76.4246 54.5811 77.1934 48.0123C77.8809 42.0686 69.2059 23.0748 48.3559 12.0748ZM56.1496 44.3748C54.6871 46.5998 51.0746 45.8373 48.7059 43.7373C46.3371 41.6373 46.0309 38.1373 47.5684 36.7623C49.1309 35.3686 52.0684 35.6873 54.4371 37.7873C56.7996 39.8936 57.2934 42.6248 56.1496 44.3748Z" fill="#AC5810"/>
<path d="M49.1934 9.80612C30.1059 -0.262629 12.6871 7.52487 6.42464 17.3311C0.155887 27.1436 2.88089 45.3124 19.7684 61.2061C33.7559 74.3686 48.0309 73.2186 52.5684 72.1124C58.2809 70.7186 62.3121 67.9999 59.7996 64.5311C58.0684 62.1374 51.8621 60.3311 48.1184 54.7561C43.9684 48.5749 49.1309 48.2624 54.0746 50.9061C59.3684 53.7374 62.3934 55.5061 67.7059 55.0186C71.5996 54.6624 77.4871 51.6499 77.3121 45.5624C77.1309 39.5811 70.0434 20.8124 49.1934 9.80612ZM57.9809 44.1999C56.1996 46.1249 52.4059 45.5999 49.5059 43.0374C46.6121 40.4686 45.7059 36.8311 47.4871 34.9124C49.2684 32.9874 53.0621 33.5124 55.9621 36.0749C58.8621 38.6374 59.7621 42.2811 57.9809 44.1999Z" fill="#F2A259"/>
<path d="M29.7623 52.9126C30.4811 51.0751 35.5936 49.0626 40.2936 52.4064C41.6123 53.3439 43.2623 55.7314 43.0936 58.7314C42.5436 68.5314 26.4623 61.3689 29.7623 52.9126Z" fill="#EEEEEE"/>
<path d="M14.8309 36.2936C16.4746 33.6686 20.4684 33.3686 23.9621 35.6373C27.0746 37.6561 29.6746 42.6248 25.8371 45.8748C23.7809 47.6186 20.2246 46.5373 18.0309 44.8561C15.3684 42.8248 13.0621 39.1186 14.8309 36.2936Z" fill="#2686C6"/>
<path d="M36.0434 13.3875C36.5497 11.3062 40.0809 10.95 42.5809 11.8812C46.8997 13.4937 48.8559 17.7687 47.2622 20.15C44.9309 23.6312 39.8497 22.4375 37.9247 20.4437C34.6559 17.0687 35.6184 15.1312 36.0434 13.3875Z" fill="#FFEE58"/>
<path d="M61.0688 23.5752C64.5313 25.1502 64.9813 27.644 64.3188 29.4627C63.9063 30.5877 63.0626 32.1315 61.3376 32.269C58.4188 32.5065 58.0126 30.094 55.9313 29.4315C54.1813 28.8752 53.4688 26.4815 54.1563 24.8752C54.7938 23.394 56.6563 21.5627 61.0688 23.5752Z" fill="#7CB342"/>
<path d="M41.8561 60.6001C40.9936 61.3813 37.9998 62.3438 34.1998 59.9688C32.9123 59.1626 31.6811 57.9938 30.9873 56.2438C30.4436 54.8688 30.5623 53.5438 30.8061 52.9563C31.5061 51.2626 32.5748 50.9501 32.5748 50.9501C31.4998 50.8751 29.4686 52.3001 29.1311 54.1688C29.0248 54.7563 28.2686 58.4313 33.1373 61.7626C37.3311 64.6376 43.5311 64.3689 43.1248 58.5813C42.9373 59.2939 42.4061 60.1063 41.8561 60.6001Z" fill="#B0B0B0"/>
<path d="M27.6621 41.075C27.5433 43.3063 24.9308 44.4812 23.4746 44.4875C19.3558 44.4937 15.6558 41.9062 15.3996 37.3C15.3558 36.475 15.7621 35.2812 15.7621 35.2812C15.2183 35.5125 14.4496 36.6875 14.2871 37.35C13.3246 41.325 17.3308 45.9562 21.5496 46.8937C23.6871 47.3687 26.3808 46.6375 27.3621 44.725C28.0621 43.3625 27.9246 42.1938 27.6621 41.075Z" fill="#01579B"/>
<path d="M42.075 20.4498C39.275 20.1311 37.725 18.2998 37.3187 17.8811C36.2062 16.7186 35.5187 15.5873 35.9187 13.9123C36.0437 13.3748 36.35 12.6873 36.725 12.2998C36.2687 12.4498 35.5312 13.4311 35.3 13.9623C35.0625 14.4936 34.2 16.4873 36.05 18.9436C37.1937 20.4686 39.1875 22.1873 42.1375 22.5998C44.2312 22.8936 45.7312 22.1436 46.9812 20.9248C47.8312 20.0936 48.2062 18.2186 47.7 17.2498C47.7812 17.9561 46.4875 20.9561 42.075 20.4498Z" fill="#DF7F14"/>
<path d="M65.1066 28.0314C64.8504 27.0877 64.1191 26.1064 64.0441 26.0564C64.3629 26.6689 64.9941 28.5064 63.6691 30.2939C63.0004 31.1939 60.9879 32.3002 58.6129 30.3752C57.9129 29.8064 57.3504 29.2439 56.0879 28.7814C52.8816 27.6002 54.2816 24.3377 55.3941 23.3252C54.5191 23.7814 53.7254 24.6002 53.3941 25.8502C52.9316 27.5939 54.0754 29.4189 55.8129 30.2939C57.7879 31.2877 58.4254 33.2064 61.1316 33.2064C61.2691 33.2064 61.4129 33.2002 61.5691 33.1877C63.3941 33.0314 64.1629 32.3252 64.7191 31.4627C65.4004 30.3877 65.4191 29.1689 65.1066 28.0314Z" fill="#558B2F"/>
<path d="M16.1373 16.1187C17.5623 14.7125 20.0435 13.225 23.6748 15.1187C25.8623 16.2562 28.406 17.5937 27.256 22.2187C26.5435 25.0875 22.3685 26.6062 18.881 23.4125C17.4998 22.15 12.2498 19.9562 16.1373 16.1187Z" fill="#F44336"/>
<path d="M28.0872 21.5998C28.131 20.5061 27.5685 19.1748 27.3747 18.7248C27.406 19.3811 27.9747 21.0373 25.3685 23.2311C24.4622 23.9936 22.8185 24.5748 21.0247 23.8686C20.106 23.5061 18.7872 21.9873 17.8435 21.6061C14.3372 20.1936 15.8497 16.4373 16.3435 15.9248C15.5497 16.4811 14.8747 17.3686 14.6247 18.6623C14.2997 20.3561 14.5997 21.9561 16.9247 23.7873C23.5247 28.9936 25.5497 25.8561 26.2685 25.0561C27.1747 24.0811 28.0372 22.8061 28.0872 21.5998Z" fill="#C62828"/>
<path d="M41.0877 12.1002C40.169 11.669 37.544 11.794 37.0377 13.9815C36.7315 15.294 37.694 16.6252 38.6002 16.469C39.6315 16.294 39.0815 14.6877 39.7003 14.2315C40.644 13.544 42.3752 12.7065 41.0877 12.1002ZM21.7252 15.2877C20.819 14.6877 17.9253 14.6815 17.0565 16.9002C16.5315 18.2315 17.3502 19.7752 18.3315 19.7502C19.4502 19.7252 18.9127 18.4065 19.844 17.569C21.019 16.5127 22.994 16.1252 21.7252 15.2877ZM21.294 35.3127C20.4377 34.769 17.9002 34.5565 16.8502 36.544C16.0815 38.0065 17.1377 39.619 18.0565 39.5752C19.1002 39.5252 18.7502 37.8627 19.419 37.4877C20.4377 36.919 22.494 36.0752 21.294 35.3127ZM35.8753 51.9565C34.9565 51.5252 32.3315 51.6502 31.8252 53.8377C31.519 55.1502 32.4815 56.4815 33.3877 56.3252C34.419 56.1502 33.869 54.544 34.4878 54.0877C35.4253 53.4002 37.1565 52.5627 35.8753 51.9565ZM59.4253 23.7815C58.6003 23.194 55.994 22.8502 55.1065 24.9127C54.5752 26.1502 55.2815 27.6315 56.2002 27.6377C57.244 27.644 56.9878 25.969 57.6815 25.6315C58.7253 25.1252 60.5815 24.6065 59.4253 23.7815Z" fill="white"/>
</svg>
