<svg width="25" height="25" viewBox="0 0 25 25" fill="none" xmlns="http://www.w3.org/2000/svg">
<path d="M11.1983 13.6861C10.9796 13.4678 10.719 13.2961 10.4322 13.1813L1.35904 9.54285C1.25071 9.49939 1.15827 9.42382 1.09412 9.3263C1.02998 9.22877 0.997199 9.11396 1.00019 8.99727C1.00318 8.88058 1.04179 8.7676 1.11084 8.67349C1.1799 8.57938 1.27609 8.50864 1.3865 8.47078L23.1255 1.03375C23.2269 0.997132 23.3366 0.990144 23.4418 1.0136C23.547 1.03706 23.6434 1.09 23.7196 1.16622C23.7958 1.24244 23.8487 1.33879 23.8722 1.44399C23.8957 1.5492 23.8887 1.65891 23.852 1.76029L16.415 23.4993C16.3772 23.6097 16.3064 23.7059 16.2123 23.775C16.1182 23.844 16.0052 23.8826 15.8885 23.8856C15.7718 23.8886 15.657 23.8558 15.5595 23.7917C15.462 23.7275 15.3864 23.6351 15.3429 23.5268L11.7045 14.4513C11.5892 14.1647 11.417 13.9044 11.1983 13.6861ZM11.1983 13.6861L23.7159 1.17105" stroke="white" stroke-width="2" stroke-linecap="round" stroke-linejoin="round"/>
</svg>
