<svg width="28" height="28" viewBox="0 0 28 28" fill="none" xmlns="http://www.w3.org/2000/svg">
<path d="M10.7921 25.6667L10.3254 21.9333C10.0726 21.8361 9.83442 21.7194 9.61081 21.5833C9.3872 21.4472 9.16845 21.3014 8.95456 21.1458L5.48372 22.6042L2.27539 17.0625L5.27956 14.7875C5.26011 14.6514 5.25039 14.5201 5.25039 14.3937V13.6062C5.25039 13.4799 5.26011 13.3486 5.27956 13.2125L2.27539 10.9375L5.48372 5.39583L8.95456 6.85416C9.16845 6.69861 9.39206 6.55277 9.62539 6.41666C9.85872 6.28055 10.0921 6.16388 10.3254 6.06666L10.7921 2.33333H17.2087L17.6754 6.06666C17.9282 6.16388 18.1664 6.28055 18.39 6.41666C18.6136 6.55277 18.8323 6.69861 19.0462 6.85416L22.5171 5.39583L25.7254 10.9375L22.7212 13.2125C22.7407 13.3486 22.7504 13.4799 22.7504 13.6062V14.3937C22.7504 14.5201 22.7309 14.6514 22.6921 14.7875L25.6962 17.0625L22.4879 22.6042L19.0462 21.1458C18.8323 21.3014 18.6087 21.4472 18.3754 21.5833C18.1421 21.7194 17.9087 21.8361 17.6754 21.9333L17.2087 25.6667H10.7921ZM14.0587 18.0833C15.1865 18.0833 16.149 17.6847 16.9462 16.8875C17.7434 16.0903 18.1421 15.1278 18.1421 14C18.1421 12.8722 17.7434 11.9097 16.9462 11.1125C16.149 10.3153 15.1865 9.91666 14.0587 9.91666C12.9115 9.91666 11.9441 10.3153 11.1566 11.1125C10.3691 11.9097 9.97539 12.8722 9.97539 14C9.97539 15.1278 10.3691 16.0903 11.1566 16.8875C11.9441 17.6847 12.9115 18.0833 14.0587 18.0833Z" fill="#1D1B20"/>
</svg>
