<svg width="32" height="32" viewBox="0 0 32 32" fill="none" xmlns="http://www.w3.org/2000/svg">
<path d="M25.1984 7.99992H22.5459C22.5459 4.26659 19.6282 1.33325 15.9147 1.33325C12.2012 1.33325 9.28348 4.26659 9.28348 7.99992H6.631C5.17213 7.99992 3.97852 9.19992 3.97852 10.6666V26.6666C3.97852 28.1333 5.17213 29.3333 6.631 29.3333H25.1984C26.6572 29.3333 27.8509 28.1333 27.8509 26.6666V10.6666C27.8509 9.19992 26.6572 7.99992 25.1984 7.99992ZM15.9147 3.99992C18.1693 3.99992 19.8934 5.73325 19.8934 7.99992H11.936C11.936 5.73325 13.6601 3.99992 15.9147 3.99992ZM25.1984 26.6666H6.631V10.6666H25.1984V26.6666ZM15.9147 15.9999C13.6601 15.9999 11.936 14.2666 11.936 11.9999H9.28348C9.28348 15.7333 12.2012 18.6666 15.9147 18.6666C19.6282 18.6666 22.5459 15.7333 22.5459 11.9999H19.8934C19.8934 14.2666 18.1693 15.9999 15.9147 15.9999Z" fill="white"/>
</svg>
