<svg width="32" height="32" viewBox="0 0 32 32" fill="none" xmlns="http://www.w3.org/2000/svg">
<path d="M15.2513 16.6114C13.5659 16.6114 11.9495 15.9383 10.7577 14.7401C9.56596 13.542 8.89642 11.917 8.89642 10.2225H11.4384C11.4384 11.2392 11.8401 12.2142 12.5552 12.9331C13.2702 13.652 14.2401 14.0559 15.2513 14.0559C16.2626 14.0559 17.2324 13.652 17.9475 12.9331C18.6626 12.2142 19.0643 11.2392 19.0643 10.2225H21.6062C21.6062 11.917 20.9367 13.542 19.7449 14.7401C18.5532 15.9383 16.9368 16.6114 15.2513 16.6114ZM15.2513 3.83363C16.2626 3.83363 17.2324 4.2375 17.9475 4.95639C18.6626 5.67528 19.0643 6.6503 19.0643 7.66697H11.4384C11.4384 6.6503 11.8401 5.67528 12.5552 4.95639C13.2702 4.2375 14.2401 3.83363 15.2513 3.83363ZM24.1482 7.66697H21.6062C21.6062 6.82796 21.4419 5.99718 21.1225 5.22204C20.8031 4.44691 20.335 3.7426 19.7449 3.14934C19.1548 2.55608 18.4543 2.08547 17.6832 1.7644C16.9122 1.44333 16.0859 1.27808 15.2513 1.27808C13.5659 1.27808 11.9495 1.95119 10.7577 3.14934C9.56596 4.34749 8.89642 5.97253 8.89642 7.66697H6.35446C4.94367 7.66697 3.8125 8.80419 3.8125 10.2225V25.5559C3.8125 26.2336 4.08031 26.8836 4.55702 27.3629C5.03373 27.8422 5.68029 28.1114 6.35446 28.1114H24.1482C24.8224 28.1114 25.4689 27.8422 25.9456 27.3629C26.4223 26.8836 26.6902 26.2336 26.6902 25.5559V10.2225C26.6902 9.54475 26.4223 8.89473 25.9456 8.41547C25.4689 7.93621 24.8224 7.66697 24.1482 7.66697Z" fill="white"/>
</svg>
