<svg width="29" height="25" viewBox="0 0 29 25" fill="none" xmlns="http://www.w3.org/2000/svg">
<path d="M22.5161 8.12605C20.2206 8.12605 18.1695 9.27613 17.291 11.0562L16.9252 11.7837L19.1706 12.6049L19.5358 11.8774C20.0313 10.8736 21.2011 10.2259 22.5161 10.2259C24.4397 10.2259 25.7319 11.3382 25.7319 12.994V13.104C24.5004 13.1322 23.0233 13.202 21.7083 13.3353C18.6728 13.6427 16.8612 15.0671 16.8612 17.1459C16.8612 18.253 17.3467 19.2492 18.2286 19.9466C19.0564 20.6019 20.185 20.9365 21.4076 20.9365C23.1257 20.9365 24.6089 20.5861 25.7319 19.8543V20.9365H28.1716V12.994C28.1716 10.1733 25.7931 8.12605 22.5161 8.12605ZM21.4076 18.8844C20.4355 18.8844 19.3003 18.4141 19.3003 17.1459C19.3003 16.6369 19.513 16.2803 19.9896 15.9897C20.4539 15.7067 21.1654 15.5045 21.9939 15.4208C23.2065 15.298 24.5722 15.232 25.7241 15.2048C25.6038 17.666 24.1891 18.8844 21.4076 18.8844ZM5.19166 15.5767H12.1789L14.5278 20.9365H17.1479L8.62961 2.29443L0.222656 20.9365H2.84273L5.19166 15.5767ZM8.68528 7.68199L11.2603 13.4797H6.1103L8.68528 7.68199Z" fill="white"/>
</svg>
